<svg width="212" height="77" viewBox="0 0 212 77" fill="none" xmlns="http://www.w3.org/2000/svg">
<path d="M24.777 4C24.777 7.92 24.057 12.48 22.617 17.68C21.257 22.8 19.257 29.12 16.617 36.64L13.857 44.92C15.217 45.16 16.617 45.28 18.057 45.28C20.537 45.28 24.257 45.04 29.217 44.56C34.177 44.08 37.737 43.84 39.897 43.84L39.777 30.64C39.617 21.52 39.537 14.8 39.537 10.48C39.537 4.8 41.417 1.95999 45.177 1.95999C48.137 1.95999 50.017 2.71999 50.817 4.23999C51.697 5.75999 52.137 8.04 52.137 11.08C52.137 14.2 51.897 19.04 51.417 25.6C51.337 26.88 51.217 29 51.057 31.96C50.897 34.92 50.817 37.48 50.817 39.64L50.937 43.48L53.337 43.36C55.257 43.2 56.737 43.12 57.777 43.12C59.697 43.12 61.537 43.76 63.297 45.04C65.057 46.24 65.937 47.68 65.937 49.36C65.937 51.36 65.617 52.92 64.977 54.04C64.417 55.16 63.737 55.72 62.937 55.72C61.577 55.72 59.857 55.56 57.777 55.24C57.297 55.24 56.577 55.2 55.617 55.12C54.657 54.96 53.737 54.88 52.857 54.88L50.817 55L50.937 71.2C50.937 72.88 50.377 74.16 49.257 75.04C48.137 75.92 46.857 76.36 45.417 76.36C43.657 76.36 42.097 75.8 40.737 74.68C39.377 73.56 38.697 72.16 38.697 70.48C38.697 65.12 38.777 60.92 38.937 57.88C39.017 57.16 39.057 56.28 39.057 55.24C36.657 55.16 32.497 55.44 26.577 56.08C20.977 56.72 16.737 57.04 13.857 57.04C10.177 57.04 7.05703 56.52 4.49703 55.48C2.01703 54.44 0.777032 52.8 0.777032 50.56C0.777032 48.4 1.21703 45.76 2.09703 42.64C2.97703 39.52 4.29703 35.32 6.05703 30.04C6.85703 27.96 7.45703 26.24 7.85703 24.88C9.29703 20.8 10.377 17.36 11.097 14.56C11.817 11.68 12.617 8.2 13.497 4.12C13.817 2.84 14.497 1.88 15.537 1.24C16.577 0.599996 17.777 0.279995 19.137 0.279995C20.577 0.279995 21.857 0.639995 22.977 1.36C24.177 2 24.777 2.88 24.777 4ZM127.207 8.32C129.847 12.4 131.967 17.08 133.567 22.36C135.167 27.56 135.967 32.88 135.967 38.32C135.967 44.8 134.847 50.96 132.607 56.8C130.447 62.64 127.167 67.4 122.767 71.08C118.447 74.76 113.167 76.6 106.927 76.6C101.087 76.6 95.7273 75.12 90.8473 72.16C85.9673 69.12 82.2873 65.6 79.8073 61.6C77.9673 58.64 76.5673 55.32 75.6073 51.64C74.6473 47.88 74.1673 44.12 74.1673 40.36C74.1673 33.8 75.5273 27.4 78.2473 21.16C81.0473 14.92 84.8873 9.92 89.7673 6.16C94.4073 2.72 99.7273 1 105.727 1C112.367 1 119.527 3.44 127.207 8.32ZM95.0473 16.6C94.3273 17.8 93.6073 18.88 92.8873 19.84C91.1273 22.48 89.8473 24.72 89.0473 26.56C88.2473 28.32 87.5273 31.04 86.8873 34.72C86.5673 36.4 86.4073 38.36 86.4073 40.6C86.4073 46.28 87.5273 51.2 89.7673 55.36C92.0873 59.44 95.2473 62.2 99.2473 63.64C101.167 64.36 103.327 64.72 105.727 64.72C111.727 64.72 116.247 62.08 119.287 56.8C122.407 51.44 123.967 44.84 123.967 37C123.967 29.72 122.607 23.76 119.887 19.12C117.167 14.4 112.967 12.04 107.287 12.04C104.967 12.04 102.967 12.4 101.287 13.12C99.6873 13.84 97.6073 15 95.0473 16.6ZM170.793 4C170.793 7.92 170.073 12.48 168.633 17.68C167.273 22.8 165.273 29.12 162.633 36.64L159.873 44.92C161.233 45.16 162.633 45.28 164.073 45.28C166.553 45.28 170.273 45.04 175.233 44.56C180.193 44.08 183.753 43.84 185.913 43.84L185.793 30.64C185.633 21.52 185.553 14.8 185.553 10.48C185.553 4.8 187.433 1.95999 191.193 1.95999C194.153 1.95999 196.033 2.71999 196.833 4.23999C197.713 5.75999 198.153 8.04 198.153 11.08C198.153 14.2 197.913 19.04 197.433 25.6C197.353 26.88 197.233 29 197.073 31.96C196.913 34.92 196.833 37.48 196.833 39.64L196.953 43.48L199.353 43.36C201.273 43.2 202.753 43.12 203.793 43.12C205.713 43.12 207.553 43.76 209.313 45.04C211.073 46.24 211.953 47.68 211.953 49.36C211.953 51.36 211.633 52.92 210.993 54.04C210.433 55.16 209.753 55.72 208.953 55.72C207.593 55.72 205.873 55.56 203.793 55.24C203.313 55.24 202.593 55.2 201.633 55.12C200.673 54.96 199.753 54.88 198.873 54.88L196.833 55L196.953 71.2C196.953 72.88 196.393 74.16 195.273 75.04C194.153 75.92 192.873 76.36 191.433 76.36C189.673 76.36 188.113 75.8 186.753 74.68C185.393 73.56 184.713 72.16 184.713 70.48C184.713 65.12 184.793 60.92 184.953 57.88C185.033 57.16 185.073 56.28 185.073 55.24C182.673 55.16 178.513 55.44 172.593 56.08C166.993 56.72 162.753 57.04 159.873 57.04C156.193 57.04 153.073 56.52 150.513 55.48C148.033 54.44 146.793 52.8 146.793 50.56C146.793 48.4 147.233 45.76 148.113 42.64C148.993 39.52 150.313 35.32 152.073 30.04C152.873 27.96 153.473 26.24 153.873 24.88C155.313 20.8 156.393 17.36 157.113 14.56C157.833 11.68 158.633 8.2 159.513 4.12C159.833 2.84 160.513 1.88 161.553 1.24C162.593 0.599996 163.793 0.279995 165.153 0.279995C166.593 0.279995 167.873 0.639995 168.993 1.36C170.193 2 170.793 2.88 170.793 4Z" fill="#E40512"/>
</svg>
